<svg width="120" height="120" viewBox="0 0 120 120" fill="none" xmlns="http://www.w3.org/2000/svg">
<path d="M90 55H30V30H90M82.5 85C80.5109 85 78.6032 84.2098 77.1967 82.8033C75.7902 81.3968 75 79.4891 75 77.5C75 75.5109 75.7902 73.6032 77.1967 72.1967C78.6032 70.7902 80.5109 70 82.5 70C84.4891 70 86.3968 70.7902 87.8033 72.1967C89.2098 73.6032 90 75.5109 90 77.5C90 79.4891 89.2098 81.3968 87.8033 82.8033C86.3968 84.2098 84.4891 85 82.5 85ZM37.5 85C35.5109 85 33.6032 84.2098 32.1967 82.8033C30.7902 81.3968 30 79.4891 30 77.5C30 75.5109 30.7902 73.6032 32.1967 72.1967C33.6032 70.7902 35.5109 70 37.5 70C39.4891 70 41.3968 70.7902 42.8033 72.1967C44.2098 73.6032 45 75.5109 45 77.5C45 79.4891 44.2098 81.3968 42.8033 82.8033C41.3968 84.2098 39.4891 85 37.5 85ZM20 80C20 84.4 21.95 88.35 25 91.1V100C25 101.326 25.5268 102.598 26.4645 103.536C27.4021 104.473 28.6739 105 30 105H35C36.3261 105 37.5979 104.473 38.5355 103.536C39.4732 102.598 40 101.326 40 100V95H80V100C80 101.326 80.5268 102.598 81.4645 103.536C82.4021 104.473 83.6739 105 85 105H90C91.3261 105 92.5979 104.473 93.5355 103.536C94.4732 102.598 95 101.326 95 100V91.1C98.05 88.35 100 84.4 100 80V30C100 12.5 82.1 10 60 10C37.9 10 20 12.5 20 30V80Z" fill="#F24822"/>
</svg>
