<svg width="100" height="100" viewBox="0 0 100 100" fill="none" xmlns="http://www.w3.org/2000/svg">
<rect width="100" height="100" rx="50" fill="#333333"/>
<g clip-path="url(#clip0_555_3246)">
<rect x="5" y="5" width="90" height="90" rx="45" fill="#0CF947"/>
<path d="M72.5 46.25H27.5V27.5H72.5M66.875 68.75C65.3832 68.75 63.9524 68.1574 62.8975 67.1025C61.8426 66.0476 61.25 64.6168 61.25 63.125C61.25 61.6332 61.8426 60.2024 62.8975 59.1475C63.9524 58.0926 65.3832 57.5 66.875 57.5C68.3668 57.5 69.7976 58.0926 70.8525 59.1475C71.9074 60.2024 72.5 61.6332 72.5 63.125C72.5 64.6168 71.9074 66.0476 70.8525 67.1025C69.7976 68.1574 68.3668 68.75 66.875 68.75ZM33.125 68.75C31.6332 68.75 30.2024 68.1574 29.1475 67.1025C28.0926 66.0476 27.5 64.6168 27.5 63.125C27.5 61.6332 28.0926 60.2024 29.1475 59.1475C30.2024 58.0926 31.6332 57.5 33.125 57.5C34.6168 57.5 36.0476 58.0926 37.1025 59.1475C38.1574 60.2024 38.75 61.6332 38.75 63.125C38.75 64.6168 38.1574 66.0476 37.1025 67.1025C36.0476 68.1574 34.6168 68.75 33.125 68.75ZM20 65C20 68.3 21.4625 71.2625 23.75 73.325V80C23.75 80.9946 24.1451 81.9484 24.8484 82.6517C25.5516 83.3549 26.5054 83.75 27.5 83.75H31.25C32.2446 83.75 33.1984 83.3549 33.9016 82.6517C34.6049 81.9484 35 80.9946 35 80V76.25H65V80C65 80.9946 65.3951 81.9484 66.0983 82.6517C66.8016 83.3549 67.7554 83.75 68.75 83.75H72.5C73.4946 83.75 74.4484 83.3549 75.1517 82.6517C75.8549 81.9484 76.25 80.9946 76.25 80V73.325C78.5375 71.2625 80 68.3 80 65V27.5C80 14.375 66.575 12.5 50 12.5C33.425 12.5 20 14.375 20 27.5V65Z" fill="white"/>
</g>
<defs>
<clipPath id="clip0_555_3246">
<rect x="5" y="5" width="90" height="90" rx="45" fill="white"/>
</clipPath>
</defs>
</svg>
