<svg width="120" height="120" viewBox="0 0 120 120" fill="none" xmlns="http://www.w3.org/2000/svg">
<path d="M60 60.0019V58.1269H58.125V57.5306C63.5317 56.456 68.4958 53.7954 72.3844 49.8881L73.71 48.5625L72.3225 47.175C76.469 42.4142 78.7521 36.3134 78.75 30C78.75 15.5025 66.9975 3.75 52.5 3.75C38.0025 3.75 26.25 15.5025 26.25 30C26.25 36.5738 28.6819 42.5663 32.6738 47.1731L31.2844 48.5625L32.6119 49.8881C36.5042 53.7924 41.4685 56.4524 46.875 57.5306V58.1269H45V60.0019H26.25V82.5019H45V95.6269H46.875V99.375H48.75V116.25H56.25V99.375H58.125V95.6269H60V93.7519H93.75V60.0019H60ZM79.8187 62.8687H91.365V64.7437H79.8187V62.8687ZM91.3669 66.6094V68.4844H72.4369V66.6094H91.3669ZM66.0056 62.8687H77.5519V64.7437H66.0056V62.8687ZM41.25 16.875C41.25 14.8125 42.9375 13.125 45 13.125H60C62.0625 13.125 63.75 14.8125 63.75 16.875V31.875C63.75 33.2513 62.9906 34.4494 61.875 35.1V39.375C61.875 40.4063 61.0294 41.25 60 41.25C58.9669 41.25 58.125 40.4063 58.125 39.375V35.625H46.875V39.375C46.875 40.4063 46.0294 41.25 45 41.25C43.9669 41.25 43.125 40.4063 43.125 39.375V35.1C42.0094 34.4475 41.25 33.2513 41.25 31.875V16.875ZM49.0163 54.0956C44.4421 53.4543 40.1472 51.5167 36.6394 48.5119L39.3 45.8513C43.0006 48.945 47.6747 50.6329 52.4981 50.6175C57.3213 50.6335 61.9954 48.9462 65.6962 45.8531L68.3588 48.5119C64.8514 51.5164 60.5572 53.454 55.9837 54.0956L54.375 54.3263V58.1269H50.625V54.3263L49.0163 54.0956ZM36.5925 62.9288H42.8044V68.4863H36.5925V62.9288ZM29.8875 62.9288H32.9344V68.4863H29.8875V62.9288ZM36.0994 79.6856H29.8875V74.0644H36.0994V79.6856ZM42.8025 79.6875H39.6975V74.0662H42.8025V79.6875ZM56.25 91.8769H54.375V95.625H50.625V91.8769H48.75V61.8769H56.25V91.8769ZM82.2187 90.9338H62.3494V89.0588H82.2187V90.9338ZM91.3669 90.9338H84.4275V89.0588H91.3669V90.9338ZM91.3669 87.195H70.1513V85.32H91.365L91.3669 87.195ZM77.8088 75.9431V74.0681H91.365V75.9431H77.8088ZM91.3669 77.8069V79.6819H84.3V77.8069H91.3669ZM82.2825 77.8069V79.6819H75.2156V77.8069H82.2825ZM75.2925 75.9431H61.7362V74.0681H75.2925V75.9431ZM73.5562 77.8069V79.6819H66.4913V77.8069H73.5562Z" fill="#F24822"/>
<path d="M46.875 24.375H58.125C59.1544 24.375 60 23.5313 60 22.5V18.75C60 17.7187 59.1544 16.875 58.125 16.875H46.875C45.8419 16.875 45 17.7187 45 18.75V22.5C45 23.5313 45.8419 24.375 46.875 24.375Z" fill="#F24822"/>
<path d="M46.875 31.875C47.9105 31.875 48.75 31.0355 48.75 30C48.75 28.9645 47.9105 28.125 46.875 28.125C45.8395 28.125 45 28.9645 45 30C45 31.0355 45.8395 31.875 46.875 31.875Z" fill="#F24822"/>
<path d="M58.125 31.875C59.1605 31.875 60 31.0355 60 30C60 28.9645 59.1605 28.125 58.125 28.125C57.0895 28.125 56.25 28.9645 56.25 30C56.25 31.0355 57.0895 31.875 58.125 31.875Z" fill="#F24822"/>
</svg>
