<svg width="150" height="150" viewBox="0 0 150 150" fill="none" xmlns="http://www.w3.org/2000/svg">
<rect width="150" height="150" rx="75" fill="#007AFF"/>
<rect x="5" y="5" width="140" height="140" rx="70" fill="#EEEEEE"/>
<path d="M75 75.0019V73.1269H73.125V72.5306C78.5317 71.456 83.4958 68.7954 87.3844 64.8881L88.71 63.5625L87.3225 62.175C91.469 57.4142 93.7521 51.3134 93.75 45C93.75 30.5025 81.9975 18.75 67.5 18.75C53.0025 18.75 41.25 30.5025 41.25 45C41.25 51.5738 43.6819 57.5663 47.6738 62.1731L46.2844 63.5625L47.6119 64.8881C51.5042 68.7924 56.4685 71.4524 61.875 72.5306V73.1269H60V75.0019H41.25V97.5019H60V110.627H61.875V114.375H63.75V131.25H71.25V114.375H73.125V110.627H75V108.752H108.75V75.0019H75ZM94.8187 77.8687H106.365V79.7437H94.8187V77.8687ZM106.367 81.6094V83.4844H87.4369V81.6094H106.367ZM81.0056 77.8687H92.5519V79.7437H81.0056V77.8687ZM56.25 31.875C56.25 29.8125 57.9375 28.125 60 28.125H75C77.0625 28.125 78.75 29.8125 78.75 31.875V46.875C78.75 48.2513 77.9906 49.4494 76.875 50.1V54.375C76.875 55.4063 76.0294 56.25 75 56.25C73.9669 56.25 73.125 55.4063 73.125 54.375V50.625H61.875V54.375C61.875 55.4063 61.0294 56.25 60 56.25C58.9669 56.25 58.125 55.4063 58.125 54.375V50.1C57.0094 49.4475 56.25 48.2513 56.25 46.875V31.875ZM64.0163 69.0956C59.4421 68.4543 55.1472 66.5167 51.6394 63.5119L54.3 60.8513C58.0006 63.945 62.6747 65.6329 67.4981 65.6175C72.3213 65.6335 76.9954 63.9462 80.6962 60.8531L83.3588 63.5119C79.8514 66.5164 75.5572 68.454 70.9837 69.0956L69.375 69.3263V73.1269H65.625V69.3263L64.0163 69.0956ZM51.5925 77.9288H57.8044V83.4863H51.5925V77.9288ZM44.8875 77.9288H47.9344V83.4863H44.8875V77.9288ZM51.0994 94.6856H44.8875V89.0644H51.0994V94.6856ZM57.8025 94.6875H54.6975V89.0662H57.8025V94.6875ZM71.25 106.877H69.375V110.625H65.625V106.877H63.75V76.8769H71.25V106.877ZM97.2187 105.934H77.3494V104.059H97.2187V105.934ZM106.367 105.934H99.4275V104.059H106.367V105.934ZM106.367 102.195H85.1513V100.32H106.365L106.367 102.195ZM92.8088 90.9431V89.0681H106.365V90.9431H92.8088ZM106.367 92.8069V94.6819H99.3V92.8069H106.367ZM97.2825 92.8069V94.6819H90.2156V92.8069H97.2825ZM90.2925 90.9431H76.7362V89.0681H90.2925V90.9431ZM88.5562 92.8069V94.6819H81.4913V92.8069H88.5562Z" fill="#007AFF"/>
<path d="M61.875 39.375H73.125C74.1544 39.375 75 38.5313 75 37.5V33.75C75 32.7187 74.1544 31.875 73.125 31.875H61.875C60.8419 31.875 60 32.7187 60 33.75V37.5C60 38.5313 60.8419 39.375 61.875 39.375Z" fill="#007AFF"/>
<path d="M61.875 46.875C62.9105 46.875 63.75 46.0355 63.75 45C63.75 43.9645 62.9105 43.125 61.875 43.125C60.8395 43.125 60 43.9645 60 45C60 46.0355 60.8395 46.875 61.875 46.875Z" fill="#007AFF"/>
<path d="M73.125 46.875C74.1605 46.875 75 46.0355 75 45C75 43.9645 74.1605 43.125 73.125 43.125C72.0895 43.125 71.25 43.9645 71.25 45C71.25 46.0355 72.0895 46.875 73.125 46.875Z" fill="#007AFF"/>
</svg>
