<svg width="120" height="120" viewBox="0 0 120 120" fill="none" xmlns="http://www.w3.org/2000/svg">
<g clip-path="url(#clip0_452_2496)">
<path d="M63.7497 0H82.4997C84.5622 0 86.2497 1.6875 86.2497 3.75V18.75C86.2497 20.8125 84.5622 22.5 82.4997 22.5H63.7497V30H108.75C112.898 30 116.25 33.3516 116.25 37.5C116.25 41.6484 112.898 45 108.75 45H11.2497C7.10122 45 3.74966 41.6484 3.74966 37.5C3.74966 33.3516 7.10122 30 11.2497 30H56.2497V3.75C56.2497 1.6875 57.9372 0 59.9997 0H63.7497ZM14.9997 52.5H29.9997V97.5H39.3747V52.5H54.3747V97.5H65.6247V52.5H80.6247V97.5H89.9997V52.5H105V98.5078C105.14 98.5781 105.281 98.6719 105.422 98.7656L116.672 106.266C119.414 108.094 120.656 111.516 119.695 114.68C118.734 117.844 115.804 120 112.5 120H7.49966C4.19497 120 1.28872 117.844 0.327785 114.68C-0.633153 111.516 0.585597 108.094 3.35122 106.266L14.6012 98.7656C14.7418 98.6719 14.8825 98.6016 15.0231 98.5078L14.9997 52.5Z" fill="#007AFF"/>
</g>
<defs>
<clipPath id="clip0_452_2496">
<rect width="120" height="120" fill="white"/>
</clipPath>
</defs>
</svg>
